<svg width="45" height="9" viewBox="0 0 45 9" fill="none" xmlns="http://www.w3.org/2000/svg">
<path d="M0.695312 8V-2.38419e-07H6.08594V1.39453H2.38672V3.30078H5.80859V4.69531H2.38672V6.60547H6.10156V8H0.695312ZM12.9932 2L10.8955 8H9.02051L6.92285 2H8.68066L9.92676 6.29297H9.98926L11.2314 2H12.9932ZM16.3857 8.11719C15.7686 8.11719 15.2373 7.99219 14.792 7.74219C14.3493 7.48958 14.0081 7.13281 13.7686 6.67187C13.529 6.20833 13.4092 5.66016 13.4092 5.02734C13.4092 4.41016 13.529 3.86849 13.7686 3.40234C14.0081 2.9362 14.3454 2.57292 14.7803 2.3125C15.2178 2.05208 15.7308 1.92188 16.3193 1.92188C16.7152 1.92188 17.0837 1.98568 17.4248 2.11328C17.7686 2.23828 18.068 2.42708 18.3232 2.67969C18.5811 2.93229 18.7816 3.25 18.9248 3.63281C19.068 4.01302 19.1396 4.45833 19.1396 4.96875V5.42578H14.0732V4.39453H17.5732C17.5732 4.15495 17.5212 3.94271 17.417 3.75781C17.3128 3.57292 17.1683 3.42839 16.9834 3.32422C16.8011 3.21745 16.5889 3.16406 16.3467 3.16406C16.0941 3.16406 15.8701 3.22266 15.6748 3.33984C15.4821 3.45443 15.3311 3.60937 15.2217 3.80469C15.1123 3.9974 15.0563 4.21224 15.0537 4.44922V5.42969C15.0537 5.72656 15.1084 5.98307 15.2178 6.19922C15.3298 6.41536 15.4873 6.58203 15.6904 6.69922C15.8936 6.81641 16.1344 6.875 16.4131 6.875C16.598 6.875 16.7673 6.84896 16.9209 6.79688C17.0745 6.74479 17.2061 6.66667 17.3154 6.5625C17.4248 6.45833 17.5081 6.33073 17.5654 6.17969L19.1045 6.28125C19.0264 6.65104 18.8662 6.97396 18.624 7.25C18.3844 7.52344 18.0745 7.73698 17.6943 7.89063C17.3167 8.04167 16.8805 8.11719 16.3857 8.11719ZM21.8896 4.53125V8H20.2256V2H21.8115V3.05859H21.8818C22.0146 2.70964 22.2373 2.43359 22.5498 2.23047C22.8623 2.02474 23.2412 1.92188 23.6865 1.92188C24.1032 1.92188 24.4665 2.01302 24.7764 2.19531C25.0863 2.3776 25.3271 2.63802 25.499 2.97656C25.6709 3.3125 25.7568 3.71354 25.7568 4.17969V8H24.0928V4.47656C24.0954 4.10937 24.0016 3.82292 23.8115 3.61719C23.6214 3.40885 23.3597 3.30469 23.0264 3.30469C22.8024 3.30469 22.6045 3.35286 22.4326 3.44922C22.2633 3.54557 22.1305 3.6862 22.0342 3.87109C21.9404 4.05339 21.8923 4.27344 21.8896 4.53125ZM30.2598 2V3.25H26.6465V2H30.2598ZM27.4668 0.5625H29.1309V6.15625C29.1309 6.3099 29.1543 6.42969 29.2012 6.51562C29.248 6.59896 29.3132 6.65755 29.3965 6.69141C29.4824 6.72526 29.5814 6.74219 29.6934 6.74219C29.7715 6.74219 29.8496 6.73568 29.9277 6.72266C30.0059 6.70703 30.0658 6.69531 30.1074 6.6875L30.3691 7.92578C30.2858 7.95182 30.1686 7.98177 30.0176 8.01563C29.8665 8.05208 29.6829 8.07422 29.4668 8.08203C29.0658 8.09766 28.7142 8.04427 28.4121 7.92187C28.1126 7.79948 27.8796 7.60937 27.7129 7.35156C27.5462 7.09375 27.4642 6.76823 27.4668 6.375V0.5625ZM31.5039 8V-2.38419e-07H33.1953V3.52734H33.3008L36.1797 -2.38419e-07H38.207L35.2383 3.58203L38.2422 8H36.2188L34.0273 4.71094L33.1953 5.72656V8H31.5039ZM42.5283 5.44531V2H44.1924V8H42.5947V6.91016H42.5322C42.3968 7.26172 42.1715 7.54427 41.8564 7.75781C41.5439 7.97135 41.1624 8.07813 40.7119 8.07813C40.3109 8.07813 39.958 7.98698 39.6533 7.80469C39.3486 7.6224 39.1104 7.36328 38.9385 7.02734C38.7692 6.69141 38.6833 6.28906 38.6807 5.82031V2H40.3447V5.52344C40.3473 5.8776 40.4424 6.15755 40.6299 6.36328C40.8174 6.56901 41.0687 6.67187 41.3838 6.67187C41.5843 6.67187 41.7718 6.6263 41.9463 6.53516C42.1208 6.44141 42.2614 6.30339 42.3682 6.12109C42.4775 5.9388 42.5309 5.71354 42.5283 5.44531Z" fill="#00466A"/>
</svg>
