<svg width="51" height="51" viewBox="0 0 51 51" fill="none" xmlns="http://www.w3.org/2000/svg">
<circle cx="25.5" cy="25.5" r="25" fill="#00466A" stroke="#00466A"/>
<path d="M3.69531 30V22H9.08594V23.3945H5.38672V25.3008H8.80859V26.6953H5.38672V28.6055H9.10156V30H3.69531ZM15.9932 24L13.8955 30H12.0205L9.92285 24H11.6807L12.9268 28.293H12.9893L14.2314 24H15.9932ZM19.3857 30.1172C18.7686 30.1172 18.2373 29.9922 17.792 29.7422C17.3493 29.4896 17.0081 29.1328 16.7686 28.6719C16.529 28.2083 16.4092 27.6602 16.4092 27.0273C16.4092 26.4102 16.529 25.8685 16.7686 25.4023C17.0081 24.9362 17.3454 24.5729 17.7803 24.3125C18.2178 24.0521 18.7308 23.9219 19.3193 23.9219C19.7152 23.9219 20.0837 23.9857 20.4248 24.1133C20.7686 24.2383 21.068 24.4271 21.3232 24.6797C21.5811 24.9323 21.7816 25.25 21.9248 25.6328C22.068 26.013 22.1396 26.4583 22.1396 26.9687V27.4258H17.0732V26.3945H20.5732C20.5732 26.1549 20.5212 25.9427 20.417 25.7578C20.3128 25.5729 20.1683 25.4284 19.9834 25.3242C19.8011 25.2174 19.5889 25.1641 19.3467 25.1641C19.0941 25.1641 18.8701 25.2227 18.6748 25.3398C18.4821 25.4544 18.3311 25.6094 18.2217 25.8047C18.1123 25.9974 18.0563 26.2122 18.0537 26.4492V27.4297C18.0537 27.7266 18.1084 27.9831 18.2178 28.1992C18.3298 28.4154 18.4873 28.582 18.6904 28.6992C18.8936 28.8164 19.1344 28.875 19.4131 28.875C19.598 28.875 19.7673 28.849 19.9209 28.7969C20.0745 28.7448 20.2061 28.6667 20.3154 28.5625C20.4248 28.4583 20.5081 28.3307 20.5654 28.1797L22.1045 28.2812C22.0264 28.651 21.8662 28.974 21.624 29.25C21.3844 29.5234 21.0745 29.737 20.6943 29.8906C20.3167 30.0417 19.8805 30.1172 19.3857 30.1172ZM24.8896 26.5313V30H23.2256V24H24.8115V25.0586H24.8818C25.0146 24.7096 25.2373 24.4336 25.5498 24.2305C25.8623 24.0247 26.2412 23.9219 26.6865 23.9219C27.1032 23.9219 27.4665 24.013 27.7764 24.1953C28.0863 24.3776 28.3271 24.638 28.499 24.9766C28.6709 25.3125 28.7568 25.7135 28.7568 26.1797V30H27.0928V26.4766C27.0954 26.1094 27.0016 25.8229 26.8115 25.6172C26.6214 25.4089 26.3597 25.3047 26.0264 25.3047C25.8024 25.3047 25.6045 25.3529 25.4326 25.4492C25.2633 25.5456 25.1305 25.6862 25.0342 25.8711C24.9404 26.0534 24.8923 26.2734 24.8896 26.5313ZM33.2598 24V25.25H29.6465V24H33.2598ZM30.4668 22.5625H32.1309V28.1562C32.1309 28.3099 32.1543 28.4297 32.2012 28.5156C32.248 28.599 32.3132 28.6576 32.3965 28.6914C32.4824 28.7253 32.5814 28.7422 32.6934 28.7422C32.7715 28.7422 32.8496 28.7357 32.9277 28.7227C33.0059 28.707 33.0658 28.6953 33.1074 28.6875L33.3691 29.9258C33.2858 29.9518 33.1686 29.9818 33.0176 30.0156C32.8665 30.0521 32.6829 30.0742 32.4668 30.082C32.0658 30.0977 31.7142 30.0443 31.4121 29.9219C31.1126 29.7995 30.8796 29.6094 30.7129 29.3516C30.5462 29.0937 30.4642 28.7682 30.4668 28.375V22.5625ZM34.5039 30V22H36.1953V25.5273H36.3008L39.1797 22H41.207L38.2383 25.582L41.2422 30H39.2188L37.0273 26.7109L36.1953 27.7266V30H34.5039ZM45.5283 27.4453V24H47.1924V30H45.5947V28.9102H45.5322C45.3968 29.2617 45.1715 29.5443 44.8564 29.7578C44.5439 29.9714 44.1624 30.0781 43.7119 30.0781C43.3109 30.0781 42.958 29.987 42.6533 29.8047C42.3486 29.6224 42.1104 29.3633 41.9385 29.0273C41.7692 28.6914 41.6833 28.2891 41.6807 27.8203V24H43.3447V27.5234C43.3473 27.8776 43.4424 28.1576 43.6299 28.3633C43.8174 28.569 44.0687 28.6719 44.3838 28.6719C44.5843 28.6719 44.7718 28.6263 44.9463 28.5352C45.1208 28.4414 45.2614 28.3034 45.3682 28.1211C45.4775 27.9388 45.5309 27.7135 45.5283 27.4453Z" fill="white"/>
</svg>
